<svg width="16" height="16" viewBox="0 0 16 16" fill="none" xmlns="http://www.w3.org/2000/svg">
<path fill-rule="evenodd" clip-rule="evenodd" d="M9.31775 0.805325C8.79541 -0.268442 7.20459 -0.268442 6.68225 0.805325C6.32579 1.5381 5.39719 1.82769 4.66006 1.43597C3.5799 0.861952 2.2929 1.75943 2.52789 2.92281C2.68826 3.71674 2.11435 4.47491 1.27811 4.57385C0.0527174 4.71884 -0.438875 6.171 0.463691 6.97962C1.07963 7.53144 1.07963 8.46859 0.463691 9.02042C-0.438875 9.829 0.0527173 11.2812 1.27811 11.4262C2.11435 11.5252 2.68826 12.2833 2.52789 13.0773C2.2929 14.2406 3.5799 15.1381 4.66006 14.5641C5.39719 14.1723 6.32579 14.462 6.68225 15.1947C7.20459 16.2684 8.79541 16.2684 9.31775 15.1947C9.67421 14.462 10.6028 14.1723 11.3399 14.5641C12.4201 15.1381 13.7071 14.2406 13.4721 13.0773C13.3117 12.2833 13.8857 11.5252 14.7219 11.4262C15.9473 11.2812 16.4389 9.829 15.5363 9.02042C14.9204 8.46859 14.9204 7.53144 15.5363 6.97962C16.4389 6.171 15.9473 4.71884 14.7219 4.57385C13.8857 4.47491 13.3117 3.71674 13.4721 2.92281C13.7071 1.75943 12.4201 0.861952 11.3399 1.43597C10.6028 1.82769 9.67421 1.5381 9.31775 0.805325ZM7.92312 12.5822C10.5173 12.5822 12.6203 10.5638 12.6203 8.07389C12.6203 5.584 10.5173 3.56555 7.92312 3.56555C5.32895 3.56555 3.22597 5.584 3.22597 8.07389C3.22597 10.5638 5.32895 12.5822 7.92312 12.5822Z" fill="white"/>
</svg>
