<svg width="21" height="29" viewBox="0 0 21 29" fill="none" xmlns="http://www.w3.org/2000/svg">
<path fill-rule="evenodd" clip-rule="evenodd" d="M4.46718 5.452H7.424C7.87246 5.452 8.236 5.81554 8.236 6.264C8.236 6.71246 7.87246 7.076 7.424 7.076H4.466V9.28H7.424C7.87246 9.28 8.236 9.64354 8.236 10.092C8.236 10.5405 7.87246 10.904 7.424 10.904H4.466V12.876H7.424C7.87246 12.876 8.236 13.2395 8.236 13.688C8.236 14.1365 7.87246 14.5 7.424 14.5H4.466V14.558C4.466 17.6331 6.9589 20.126 10.034 20.126C13.1091 20.126 15.602 17.6331 15.602 14.558V14.5H12.76C12.3115 14.5 11.948 14.1365 11.948 13.688C11.948 13.2395 12.3115 12.876 12.76 12.876H15.602V10.904H12.76C12.3115 10.904 11.948 10.5405 11.948 10.092C11.948 9.64354 12.3115 9.28 12.76 9.28H15.602V7.076H12.76C12.3115 7.076 11.948 6.71246 11.948 6.264C11.948 5.81554 12.3115 5.452 12.76 5.452H15.6008C15.5391 2.43043 13.0704 0 10.034 0C6.99764 0 4.52894 2.43043 4.46718 5.452ZM2.204 12.238C2.204 11.6294 1.71062 11.136 1.102 11.136C0.493382 11.136 0 11.6294 0 12.238V14.471C0 19.6463 3.90676 23.9091 8.932 24.4711V26.796H4.408C3.79938 26.796 3.306 27.2894 3.306 27.898C3.306 28.5066 3.79938 29 4.408 29H15.66C16.2686 29 16.762 28.5066 16.762 27.898C16.762 27.2894 16.2686 26.796 15.66 26.796H11.136V24.4774C16.1891 23.9419 20.126 19.6662 20.126 14.471V12.238C20.126 11.6294 19.6326 11.136 19.024 11.136C18.4154 11.136 17.922 11.6294 17.922 12.238V14.471C17.922 18.8114 14.4034 22.33 10.063 22.33C5.72259 22.33 2.204 18.8114 2.204 14.471V12.238Z" fill="white"/>
</svg>
