<svg width="150" height="150" viewBox="0 0 150 150" fill="none" xmlns="http://www.w3.org/2000/svg">
<circle cx="75" cy="75" r="75" fill="url(#paint0_radial)" fill-opacity="0.3"/>
<path fill-rule="evenodd" clip-rule="evenodd" d="M56.0933 44.4207H66.0836C67.5988 44.4207 68.8271 45.6491 68.8271 47.1643C68.8271 48.6795 67.5988 49.9078 66.0836 49.9078H56.0893V57.3545H66.0836C67.5988 57.3545 68.8271 58.5828 68.8271 60.098C68.8271 61.6132 67.5988 62.8415 66.0836 62.8415H56.0893V69.5043H66.0836C67.5988 69.5043 68.8271 70.7326 68.8271 72.2478C68.8271 73.763 67.5988 74.9914 66.0836 74.9914H56.0893V75.1873C56.0893 85.5772 64.5121 94 74.902 94C85.2919 94 93.7147 85.5772 93.7147 75.1873V74.9914H84.1124C82.5972 74.9914 81.3689 73.763 81.3689 72.2478C81.3689 70.7326 82.5972 69.5043 84.1124 69.5043H93.7147V62.8415H84.1124C82.5972 62.8415 81.3689 61.6132 81.3689 60.098C81.3689 58.5828 82.5972 57.3545 84.1124 57.3545H93.7147V49.9078H84.1124C82.5972 49.9078 81.3689 48.6795 81.3689 47.1643C81.3689 45.6491 82.5972 44.4207 84.1124 44.4207H93.7108C93.5021 34.2117 85.161 26 74.902 26C64.643 26 56.302 34.2117 56.0933 44.4207ZM48.4467 67.3487C48.4467 65.2924 46.7797 63.6254 44.7233 63.6254C42.667 63.6254 41 65.2924 41 67.3487V74.8934C41 92.3792 54.1998 106.782 71.1787 108.681V116.536H55.8934C53.837 116.536 52.17 118.203 52.17 120.259C52.17 122.316 53.837 123.983 55.8934 123.983H93.9107C95.9669 123.983 97.634 122.316 97.634 120.259C97.634 118.203 95.9669 116.536 93.9107 116.536H78.6254V108.702C95.6985 106.893 109 92.4464 109 74.8934V67.3487C109 65.2924 107.333 63.6254 105.277 63.6254C103.22 63.6254 101.553 65.2924 101.553 67.3487V74.8934C101.553 89.5584 89.6651 101.447 75 101.447C60.335 101.447 48.4467 89.5584 48.4467 74.8934V67.3487Z" fill="white"/>
<defs>
<radialGradient id="paint0_radial" cx="0" cy="0" r="1" gradientUnits="userSpaceOnUse" gradientTransform="translate(75 75) rotate(90) scale(75)">
<stop stop-color="white" stop-opacity="0"/>
<stop offset="1" stop-color="white"/>
</radialGradient>
</defs>
</svg>
