<svg width="16" height="17" viewBox="0 0 16 17" fill="none" xmlns="http://www.w3.org/2000/svg">
<path d="M2.94737 10.9474C3.71368 10.9474 4.40674 10.6459 4.93221 10.1642L10.2038 13.1764C10.1414 13.4109 10.1083 13.6521 10.1053 13.8947C10.1053 15.52 11.4274 16.8421 13.0526 16.8421C14.6779 16.8421 16 15.52 16 13.8947C16 12.2695 14.6779 10.9474 13.0526 10.9474C12.2863 10.9474 11.5933 11.2488 11.0678 11.7305L5.79621 8.71832C5.84926 8.51032 5.88295 8.29558 5.88716 8.07158L11.0669 5.11158C11.5933 5.59326 12.2863 5.89474 13.0526 5.89474C14.6779 5.89474 16 4.57263 16 2.94737C16 1.32211 14.6779 0 13.0526 0C11.4274 0 10.1053 1.32211 10.1053 2.94737C10.1053 3.19663 10.1457 3.43411 10.2038 3.66568L5.41726 6.40168C5.15094 5.98849 4.78539 5.64856 4.35396 5.41291C3.92253 5.17727 3.43896 5.05341 2.94737 5.05263C1.32211 5.05263 0 6.37474 0 8C0 9.62526 1.32211 10.9474 2.94737 10.9474ZM13.0526 12.6316C13.7491 12.6316 14.3158 13.1983 14.3158 13.8947C14.3158 14.5912 13.7491 15.1579 13.0526 15.1579C12.3562 15.1579 11.7895 14.5912 11.7895 13.8947C11.7895 13.1983 12.3562 12.6316 13.0526 12.6316ZM13.0526 1.68421C13.7491 1.68421 14.3158 2.25095 14.3158 2.94737C14.3158 3.64379 13.7491 4.21053 13.0526 4.21053C12.3562 4.21053 11.7895 3.64379 11.7895 2.94737C11.7895 2.25095 12.3562 1.68421 13.0526 1.68421ZM2.94737 6.73684C3.64379 6.73684 4.21053 7.30358 4.21053 8C4.21053 8.69642 3.64379 9.26316 2.94737 9.26316C2.25095 9.26316 1.68421 8.69642 1.68421 8C1.68421 7.30358 2.25095 6.73684 2.94737 6.73684Z" fill="white"/>
</svg>
